<svg width="320" height="320" viewBox="0 0 320 320" fill="none" xmlns="http://www.w3.org/2000/svg">
<path d="M58.5859 14L109.323 43.2929V101.879L58.5859 131.172L7.84902 101.879V43.2929L58.5859 14Z" fill="#1893F8" stroke="white" stroke-width="10"/>
<path d="M261.414 14.4041L312.151 43.697V102.283L261.414 131.576L210.677 102.283V43.697L261.414 14.4041Z" fill="#1893F8" stroke="white" stroke-width="10"/>
<path d="M160 189.354L210.737 218.646V277.232L160 306.525L109.263 277.232V218.646L160 189.354Z" fill="#1893F8" stroke="white" stroke-width="10"/>
<path d="M160.057 14L210.793 43.2929V101.879L160.057 131.172L109.32 101.879V43.2929L160.057 14Z" fill="#DE0F3F" stroke="white" stroke-width="10"/>
<path d="M210.505 101.677L261.242 130.97V189.556L210.505 218.848L159.768 189.556V130.97L210.505 101.677Z" fill="#DE0F3F" stroke="white" stroke-width="10"/>
<path d="M109.091 101.677L159.828 130.97V189.556L109.091 218.848L58.3541 189.556V130.97L109.091 101.677Z" fill="#DE0F3F" stroke="white" stroke-width="10"/>
</svg>
